# Blender v2.80 (sub 75) OBJ File: 'MaraudersMap.blend'
# www.blender.org
mtllib MaraudersMap.mtl
o Plane
v -1.333078 0.000000 1.000000
v 1.333588 0.000000 1.000000
v -1.333078 0.000000 -1.000000
v 1.333588 0.000000 -1.000000
v -1.339312 0.020121 -0.786710
v -1.383679 -0.007035 -0.574770
v -1.334157 -0.000656 -0.406534
v -1.321596 -0.023532 -0.232477
v -1.371769 0.019732 0.030735
v -1.295803 -0.002698 0.218696
v -1.366459 0.029645 0.422598
v -1.330502 0.001806 0.620946
v -1.327776 0.012530 0.792611
v -1.103412 0.022980 1.012398
v -0.746088 0.022771 0.990086
v -0.521631 -0.002753 0.970063
v -0.267609 0.008679 0.994076
v 0.029178 -0.016860 1.001358
v 0.292154 0.001044 1.042033
v 0.512755 0.025317 0.966773
v 0.788897 -0.024572 1.023067
v 1.068081 0.000227 1.000645
v 1.365382 -0.035633 0.809129
v 1.336013 -0.005036 0.610894
v 1.333235 0.015417 0.417153
v 1.334519 0.003907 0.202629
v 1.294460 0.017366 0.016343
v 1.281893 0.016622 -0.220674
v 1.357652 -0.019672 -0.432670
v 1.353826 0.005103 -0.588527
v 1.340141 0.013286 -0.795445
v 1.012368 -0.017399 -0.981420
v 0.800183 -0.000212 -1.000092
v 0.531748 -0.003326 -0.994808
v 0.277390 -0.029090 -1.026434
v -0.007831 0.002692 -1.006640
v -0.263603 0.006982 -1.005380
v -0.555610 -0.029945 -0.983430
v -0.759058 0.005188 -1.029433
v -1.078247 0.011478 -0.988750
v -1.066412 0.000000 0.800000
v -1.066412 0.000000 0.600000
v -1.066412 0.000000 0.400000
v -1.066412 0.000000 0.200000
v -1.066412 0.000000 0.000000
v -1.066412 0.000000 -0.200000
v -1.066412 0.000000 -0.400000
v -1.066412 0.000000 -0.600000
v -1.066412 0.000000 -0.800000
v -0.799745 0.000000 -0.800000
v -0.533078 0.000000 0.800000
v -0.533078 0.000000 -0.800000
v -0.266412 0.000000 0.800000
v -0.266412 0.000000 -0.800000
v 0.000255 0.000000 0.800000
v 0.000255 0.000000 -0.800000
v 0.266922 0.000000 0.800000
v 0.266922 0.000000 -0.800000
v 0.533588 0.000000 0.800000
v 0.533588 0.000000 -0.800000
v 0.800255 0.000000 0.800000
v 1.066922 0.000000 0.800000
v 1.066922 0.000000 0.600000
v 1.066922 0.000000 0.400000
v 1.066922 0.000000 0.200000
v 1.066922 0.000000 0.000000
v 1.066922 0.000000 -0.200000
v 1.066922 0.000000 -0.400000
v 1.066922 0.000000 -0.600000
v 1.066922 0.000000 -0.800000
v 0.800255 0.000000 -0.800000
v -0.799745 0.000000 0.800000
vt 0.738830 0.561598
vt 0.759442 0.561083
vt 0.758948 0.584282
vt 0.734715 0.582175
vt 0.557299 0.560093
vt 0.577887 0.561598
vt 0.576993 0.583007
vt 0.557769 0.584282
vt 0.598004 0.561598
vt 0.601075 0.587620
vt 0.618122 0.561598
vt 0.616424 0.582403
vt 0.638240 0.561598
vt 0.638453 0.584892
vt 0.658358 0.561598
vt 0.657748 0.585037
vt 0.678476 0.561598
vt 0.679266 0.587280
vt 0.698594 0.561598
vt 0.698456 0.583694
vt 0.718712 0.561598
vt 0.718708 0.584293
vt 0.557769 0.357444
vt 0.575095 0.356038
vt 0.577887 0.380128
vt 0.558170 0.380966
vt 0.577887 0.402813
vt 0.557964 0.400437
vt 0.577887 0.425496
vt 0.555251 0.422933
vt 0.577887 0.448180
vt 0.560582 0.446060
vt 0.577887 0.470864
vt 0.554850 0.467378
vt 0.577887 0.493547
vt 0.558636 0.497230
vt 0.577887 0.516231
vt 0.557687 0.516973
vt 0.577887 0.538915
vt 0.553952 0.536055
vt 0.602052 0.358569
vt 0.598004 0.380128
vt 0.618987 0.360840
vt 0.618122 0.380128
vt 0.638150 0.358117
vt 0.638240 0.380128
vt 0.660540 0.357290
vt 0.658358 0.380128
vt 0.680379 0.352677
vt 0.678476 0.380128
vt 0.697023 0.361213
vt 0.698594 0.380128
vt 0.717856 0.354828
vt 0.718712 0.380128
vt 0.738918 0.357372
vt 0.738830 0.380128
vt 0.000000 1.000000
vt 0.000000 0.000000
vt 1.000000 0.000000
vt 1.000000 1.000000
vt 0.758948 0.357444
vt 0.761347 0.379093
vt 0.759130 0.401577
vt 0.738830 0.402813
vt 0.758921 0.423551
vt 0.738830 0.425496
vt 0.759018 0.447881
vt 0.738830 0.448180
vt 0.755996 0.469010
vt 0.738830 0.470864
vt 0.755048 0.495891
vt 0.738830 0.493547
vt 0.760763 0.519936
vt 0.738830 0.516231
vt 0.760475 0.537613
vt 0.738830 0.538915
vn -0.0531 0.9961 -0.0708
vn 0.0163 0.9996 -0.0217
vn 0.0136 0.9991 0.0408
vn 0.0799 0.9952 -0.0562
vn -0.0680 0.9961 -0.0554
vn 0.0083 0.9997 0.0234
vn 0.0552 0.9966 -0.0604
vn -0.0445 0.9960 -0.0776
vn -0.0059 0.9999 -0.0089
vn 0.0378 0.9980 -0.0515
vn -0.0202 0.9994 -0.0269
vn 0.0265 0.9992 -0.0290
vn 0.0605 0.9961 0.0642
vn 0.0451 0.9964 -0.0719
vn 0.0365 0.9981 0.0506
vn -0.0065 0.9956 -0.0937
vn -0.0508 0.9967 0.0627
vn -0.0136 0.9998 -0.0155
vn 0.0266 0.9973 0.0686
vn -0.0037 0.9936 -0.1128
vn 0.0492 0.9967 -0.0643
vn -0.0212 0.9997 -0.0157
vn 0.0450 0.9988 0.0175
vn -0.0368 0.9985 0.0401
vn -0.0594 0.9962 -0.0636
vn 0.0909 0.9958 0.0056
vn -0.0430 0.9975 0.0563
vn 0.0000 1.0000 0.0000
vn 0.0645 0.9942 -0.0860
vn 0.0688 0.9951 0.0714
vn -0.0221 0.9984 0.0520
vn -0.0351 0.9990 -0.0278
vn -0.0444 0.9982 0.0394
vn -0.0766 0.9971 0.0005
vn -0.0033 0.9961 -0.0884
vn 0.0277 0.9972 0.0691
vn -0.0334 0.9992 0.0212
vn 0.0000 0.0000 1.0000
usemtl MaraudersMapTex
s off
f 70/1/1 31/2/1 4/3/1 32/4/1
f 5/5/2 49/6/2 40/7/2 3/8/2
f 49/6/3 50/9/3 39/10/3 40/7/3
f 50/9/4 52/11/4 38/12/4 39/10/4
f 52/11/5 54/13/5 37/14/5 38/12/5
f 54/13/6 56/15/6 36/16/6 37/14/6
f 56/15/7 58/17/7 35/18/7 36/16/7
f 58/17/8 60/19/8 34/20/8 35/18/8
f 60/19/9 71/21/9 33/22/9 34/20/9
f 71/21/10 70/1/10 32/4/10 33/22/10
f 1/23/11 14/24/11 41/25/11 13/26/11
f 13/26/12 41/25/12 42/27/12 12/28/12
f 12/28/13 42/27/13 43/29/13 11/30/13
f 11/30/14 43/29/14 44/31/14 10/32/14
f 10/32/15 44/31/15 45/33/15 9/34/15
f 9/34/16 45/33/16 46/35/16 8/36/16
f 8/36/17 46/35/17 47/37/17 7/38/17
f 7/38/18 47/37/18 48/39/18 6/40/18
f 6/40/19 48/39/19 49/6/19 5/5/19
f 14/24/20 15/41/20 72/42/20 41/25/20
f 15/41/21 16/43/21 51/44/21 72/42/21
f 16/43/22 17/45/22 53/46/22 51/44/22
f 17/45/23 18/47/23 55/48/23 53/46/23
f 18/47/24 19/49/24 57/50/24 55/48/24
f 19/49/25 20/51/25 59/52/25 57/50/25
f 20/51/26 21/53/26 61/54/26 59/52/26
f 21/53/27 22/55/27 62/56/27 61/54/27
f 50/57/28 72/58/28 61/59/28 71/60/28
f 22/55/29 2/61/29 23/62/29 62/56/29
f 62/56/30 23/62/30 24/63/30 63/64/30
f 63/64/31 24/63/31 25/65/31 64/66/31
f 64/66/32 25/65/32 26/67/32 65/68/32
f 65/68/33 26/67/33 27/69/33 66/70/33
f 66/70/34 27/69/34 28/71/34 67/72/34
f 67/72/35 28/71/35 29/73/35 68/74/35
f 68/74/36 29/73/36 30/75/36 69/76/36
f 69/76/37 30/75/37 31/2/37 70/1/37
f 50/9/38 71/21/38 70/1/38 49/6/38
f 61/54/38 72/42/38 41/25/38 62/56/38
f 71/21/28 61/54/28 62/56/28 70/1/28
f 72/42/28 50/9/28 49/6/28 41/25/28
